<svg xmlns="http://www.w3.org/2000/svg" viewBox="0 0 900 520"><rect width="900" height="520" rx="32" fill="#07101f"/><g font-family="Arial" text-anchor="middle"><g fill="#101d38" stroke="#00d2ff" stroke-width="3"><rect x="50" y="205" width="125" height="80" rx="18"/><rect x="205" y="205" width="125" height="80" rx="18"/><rect x="360" y="205" width="125" height="80" rx="18"/><rect x="515" y="205" width="125" height="80" rx="18"/><rect x="670" y="205" width="180" height="80" rx="18"/></g><g fill="white" font-size="20"><text x="112" y="238">GOAL</text><text x="112" y="264">Understand</text><text x="267" y="238">PLAN</text><text x="267" y="264">Steps</text><text x="422" y="238">TOOLS</text><text x="422" y="264">Use</text><text x="577" y="238">ACT</text><text x="577" y="264">Execute</text><text x="760" y="238">VERIFY</text><text x="760" y="264">Human check</text></g></g><g stroke="#6c5ce7" stroke-width="7"><path d="M175 245H205"/><path d="M330 245H360"/><path d="M485 245H515"/><path d="M640 245H670"/></g><text x="450" y="100" fill="white" font-size="38" text-anchor="middle" font-family="Arial">AI AGENT WORKFLOW</text></svg>